<svg xmlns="http://www.w3.org/2000/svg" version="1.1" xmlns:xlink="http://www.w3.org/1999/xlink" xmlns:svgjs="http://svgjs.dev/svgjs" width="1000" height="1368" viewBox="0 0 1000 1368"><g transform="matrix(1,0,0,1,-0.22181705826625375,-1.9355744680848375)"><svg viewBox="0 0 103 141" data-background-color="#1f0f53" preserveAspectRatio="xMidYMid meet" height="1368" width="1000" xmlns="http://www.w3.org/2000/svg" xmlns:xlink="http://www.w3.org/1999/xlink"><g id="tight-bounds" transform="matrix(1,0,0,1,0.022847157001422147,0.19949999999997203)"><svg viewBox="0 0 102.95430568599718 140.60052000000002" height="140.60052000000002" width="102.95430568599718"><g><svg viewBox="0 0 102.95430568599718 140.60052000000002" height="140.60052000000002" width="102.95430568599718"><g><svg viewBox="0 0 102.95430568599718 140.60052000000002" height="140.60052000000002" width="102.95430568599718"><g><path d="M0 140.601v-140.601h102.954v140.601z" fill="#ffdb99" stroke="transparent" stroke-width="0" rx="0%" data-fill-palette-color="tertiary"></path><path d="M3.283 137.317v-134.034h96.388v134.034z" fill="#1f0f53" stroke="transparent" stroke-width="0" rx="0%" data-fill-palette-color="quaternary"></path><path d="M9.85 130.751v-120.901h83.254v120.901z" fill="#ffdb99" stroke="transparent" stroke-width="0" data-fill-palette-color="tertiary"></path></g><g transform="matrix(1,0,0,1,19.69974,19.69974)"><svg viewBox="0 0 63.55482568599719 101.20104" height="101.20104" width="63.55482568599719"><g><svg viewBox="0 0 63.55482568599719 101.20104" height="101.20104" width="63.55482568599719"><g transform="matrix(1,0,0,1,0,0)"><svg width="63.55482568599719" viewBox="3 -35 22.200000762939453 35.349998474121094" height="101.20104" data-palette-color="#1f0f53"><path d="M19.3-1.5Q20.6-2 21.48-3.33 22.35-4.65 22.35-7.6L22.35-7.6 22.35-14.7Q21-13.5 18.75-12.88 16.5-12.25 14.45-12.25L14.45-12.25Q9.15-12.25 6.08-14.88 3-17.5 3-22.65L3-22.65 3-35 5.8-35 5.8-22.15Q5.8-18.65 8.2-16.82 10.6-15 14.45-15L14.45-15Q17.4-15 19.6-16.25 21.8-17.5 22.35-20L22.35-20 22.35-35 25.2-35 25.2-7.8Q25.2-4.15 23.83-2.08 22.45 0 19.95 0.35L19.95 0.35 19.3-1.5Z" opacity="1" transform="matrix(1,0,0,1,0,0)" fill="#1f0f53" class="undefined-text-0" data-fill-palette-color="quaternary" id="text-0"></path></svg></g></svg></g></svg></g></svg></g><g></g></svg></g><defs></defs></svg><rect width="102.95430568599718" height="140.60052000000002" fill="none" stroke="none" visibility="hidden"></rect></g></svg></g></svg>